# Tiled2Unity generated file. Do not modify by hand.
# Wavefront file for 'con_hall_mesh_0002.obj'

# Vertices (Count = 284)
v -352 -352 0
v -384 -352 0
v -384 -320 0
v -352 -320 0
v -384 -352 0
v -416 -352 0
v -416 -320 0
v -384 -320 0
v -416 -352 0
v -448 -352 0
v -448 -320 0
v -416 -320 0
v -448 -352 0
v -480 -352 0
v -480 -320 0
v -448 -320 0
v -480 -352 0
v -512 -352 0
v -512 -320 0
v -480 -320 0
v -512 -352 0
v -544 -352 0
v -544 -320 0
v -512 -320 0
v -928 -352 0
v -960 -352 0
v -960 -320 0
v -928 -320 0
v -960 -352 0
v -992 -352 0
v -992 -320 0
v -960 -320 0
v -992 -352 0
v -1024 -352 0
v -1024 -320 0
v -992 -320 0
v -1024 -352 0
v -1056 -352 0
v -1056 -320 0
v -1024 -320 0
v -1056 -352 0
v -1088 -352 0
v -1088 -320 0
v -1056 -320 0
v -1088 -352 0
v -1120 -352 0
v -1120 -320 0
v -1088 -320 0
v -352 -384 0
v -384 -384 0
v -384 -352 0
v -352 -352 0
v -384 -384 0
v -416 -384 0
v -416 -352 0
v -384 -352 0
v -416 -384 0
v -448 -384 0
v -448 -352 0
v -416 -352 0
v -448 -384 0
v -480 -384 0
v -480 -352 0
v -448 -352 0
v -480 -384 0
v -512 -384 0
v -512 -352 0
v -480 -352 0
v -512 -384 0
v -544 -384 0
v -544 -352 0
v -512 -352 0
v -928 -384 0
v -960 -384 0
v -960 -352 0
v -928 -352 0
v -960 -384 0
v -992 -384 0
v -992 -352 0
v -960 -352 0
v -992 -384 0
v -1024 -384 0
v -1024 -352 0
v -992 -352 0
v -1024 -384 0
v -1056 -384 0
v -1056 -352 0
v -1024 -352 0
v -1056 -384 0
v -1088 -384 0
v -1088 -352 0
v -1056 -352 0
v -1088 -384 0
v -1120 -384 0
v -1120 -352 0
v -1088 -352 0
v -352 -416 0
v -384 -416 0
v -384 -384 0
v -352 -384 0
v -384 -416 0
v -416 -416 0
v -416 -384 0
v -384 -384 0
v -416 -416 0
v -448 -416 0
v -448 -384 0
v -416 -384 0
v -448 -416 0
v -480 -416 0
v -480 -384 0
v -448 -384 0
v -480 -416 0
v -512 -416 0
v -512 -384 0
v -480 -384 0
v -512 -416 0
v -544 -416 0
v -544 -384 0
v -512 -384 0
v -928 -416 0
v -960 -416 0
v -960 -384 0
v -928 -384 0
v -960 -416 0
v -992 -416 0
v -992 -384 0
v -960 -384 0
v -992 -416 0
v -1024 -416 0
v -1024 -384 0
v -992 -384 0
v -1024 -416 0
v -1056 -416 0
v -1056 -384 0
v -1024 -384 0
v -1056 -416 0
v -1088 -416 0
v -1088 -384 0
v -1056 -384 0
v -1088 -416 0
v -1120 -416 0
v -1120 -384 0
v -1088 -384 0
v -96 -448 0
v -128 -448 0
v -128 -416 0
v -96 -416 0
v -128 -448 0
v -160 -448 0
v -160 -416 0
v -128 -416 0
v -160 -448 0
v -192 -448 0
v -192 -416 0
v -160 -416 0
v -192 -448 0
v -224 -448 0
v -224 -416 0
v -192 -416 0
v -352 -448 0
v -384 -448 0
v -384 -416 0
v -352 -416 0
v -384 -448 0
v -416 -448 0
v -416 -416 0
v -384 -416 0
v -416 -448 0
v -448 -448 0
v -448 -416 0
v -416 -416 0
v -448 -448 0
v -480 -448 0
v -480 -416 0
v -448 -416 0
v -480 -448 0
v -512 -448 0
v -512 -416 0
v -480 -416 0
v -512 -448 0
v -544 -448 0
v -544 -416 0
v -512 -416 0
v -928 -448 0
v -960 -448 0
v -960 -416 0
v -928 -416 0
v -960 -448 0
v -992 -448 0
v -992 -416 0
v -960 -416 0
v -992 -448 0
v -1024 -448 0
v -1024 -416 0
v -992 -416 0
v -1024 -448 0
v -1056 -448 0
v -1056 -416 0
v -1024 -416 0
v -1056 -448 0
v -1088 -448 0
v -1088 -416 0
v -1056 -416 0
v -1088 -448 0
v -1120 -448 0
v -1120 -416 0
v -1088 -416 0
v -96 -480 0
v -128 -480 0
v -128 -448 0
v -96 -448 0
v -128 -480 0
v -160 -480 0
v -160 -448 0
v -128 -448 0
v -160 -480 0
v -192 -480 0
v -192 -448 0
v -160 -448 0
v -192 -480 0
v -224 -480 0
v -224 -448 0
v -192 -448 0
v -352 -480 0
v -384 -480 0
v -384 -448 0
v -352 -448 0
v -384 -480 0
v -416 -480 0
v -416 -448 0
v -384 -448 0
v -416 -480 0
v -448 -480 0
v -448 -448 0
v -416 -448 0
v -448 -480 0
v -480 -480 0
v -480 -448 0
v -448 -448 0
v -480 -480 0
v -512 -480 0
v -512 -448 0
v -480 -448 0
v -512 -480 0
v -544 -480 0
v -544 -448 0
v -512 -448 0
v -928 -480 0
v -960 -480 0
v -960 -448 0
v -928 -448 0
v -960 -480 0
v -992 -480 0
v -992 -448 0
v -960 -448 0
v -992 -480 0
v -1024 -480 0
v -1024 -448 0
v -992 -448 0
v -1024 -480 0
v -1056 -480 0
v -1056 -448 0
v -1024 -448 0
v -1056 -480 0
v -1088 -480 0
v -1088 -448 0
v -1056 -448 0
v -1088 -480 0
v -1120 -480 0
v -1120 -448 0
v -1088 -448 0
v -96 -512 0
v -128 -512 0
v -128 -480 0
v -96 -480 0
v -128 -512 0
v -160 -512 0
v -160 -480 0
v -128 -480 0
v -160 -512 0
v -192 -512 0
v -192 -480 0
v -160 -480 0

# Texture cooridinates (Count = 36)
vt 0.6 0.3
vt 0.7 0.3
vt 0.7 0.4
vt 0.6 0.4
vt 0.8 0.3
vt 0.8 0.4
vt 0.9 0.3
vt 0.9 0.4
vt 0.6 0.2
vt 0.7 0.2
vt 0.8 0.2
vt 0.5 0.1
vt 0.6 0.1
vt 0.5 0.2
vt 0.5 0.3
vt 0.5 0.4
vt 0.9 0.2
vt 0.8 0.9
vt 0.9 0.9
vt 0.9 1
vt 0.8 1
vt 0.8 0.5
vt 0.9 0.5
vt 0.9 0.6
vt 0.8 0.6
vt 0.8 0.7
vt 0.9 0.7
vt 0.9 0.8
vt 0.8 0.8
vt 0.7 0.1
vt 0.8 0.1
vt 0.9 0.1
vt 0.7 0.7
vt 0.7 0.8
vt 1 0.7
vt 1 0.8

# Normal
vn 0 0 -1

# Mesh description
g con_hall_mesh_0002

# Faces
f 1/1/1 2/2/1 3/3/1 4/4/1
f 5/2/1 6/5/1 7/6/1 8/3/1
f 9/2/1 10/5/1 11/6/1 12/3/1
f 13/2/1 14/5/1 15/6/1 16/3/1
f 17/2/1 18/5/1 19/6/1 20/3/1
f 21/5/1 22/7/1 23/8/1 24/6/1
f 25/1/1 26/2/1 27/3/1 28/4/1
f 29/2/1 30/5/1 31/6/1 32/3/1
f 33/2/1 34/5/1 35/6/1 36/3/1
f 37/2/1 38/5/1 39/6/1 40/3/1
f 41/2/1 42/5/1 43/6/1 44/3/1
f 45/5/1 46/7/1 47/8/1 48/6/1
f 49/9/1 50/10/1 51/2/1 52/1/1
f 53/10/1 54/11/1 55/5/1 56/2/1
f 57/10/1 58/11/1 59/5/1 60/2/1
f 61/12/1 62/13/1 63/9/1 64/14/1
f 65/15/1 66/1/1 67/4/1 68/16/1
f 69/11/1 70/17/1 71/7/1 72/5/1
f 73/9/1 74/10/1 75/2/1 76/1/1
f 77/14/1 78/9/1 79/1/1 80/15/1
f 81/15/1 82/1/1 83/4/1 84/16/1
f 85/14/1 86/9/1 87/1/1 88/15/1
f 89/10/1 90/11/1 91/5/1 92/2/1
f 93/11/1 94/17/1 95/7/1 96/5/1
f 97/9/1 98/10/1 99/2/1 100/1/1
f 101/10/1 102/11/1 103/5/1 104/2/1
f 105/14/1 106/9/1 107/1/1 108/15/1
f 109/12/1 110/13/1 111/9/1 112/14/1
f 113/15/1 114/1/1 115/4/1 116/16/1
f 117/11/1 118/17/1 119/7/1 120/5/1
f 121/9/1 122/10/1 123/2/1 124/1/1
f 125/12/1 126/13/1 127/9/1 128/14/1
f 129/14/1 130/9/1 131/1/1 132/15/1
f 133/10/1 134/11/1 135/5/1 136/2/1
f 137/12/1 138/13/1 139/9/1 140/14/1
f 141/11/1 142/17/1 143/7/1 144/5/1
f 145/18/1 146/19/1 147/20/1 148/21/1
f 149/18/1 150/19/1 151/20/1 152/21/1
f 153/18/1 154/19/1 155/20/1 156/21/1
f 157/22/1 158/23/1 159/24/1 160/25/1
f 161/9/1 162/10/1 163/2/1 164/1/1
f 165/14/1 166/9/1 167/1/1 168/15/1
f 169/14/1 170/9/1 171/1/1 172/15/1
f 173/14/1 174/9/1 175/1/1 176/15/1
f 177/10/1 178/11/1 179/5/1 180/2/1
f 181/11/1 182/17/1 183/7/1 184/5/1
f 185/9/1 186/10/1 187/2/1 188/1/1
f 189/14/1 190/9/1 191/1/1 192/15/1
f 193/14/1 194/9/1 195/1/1 196/15/1
f 197/12/1 198/13/1 199/9/1 200/14/1
f 201/12/1 202/13/1 203/9/1 204/14/1
f 205/11/1 206/17/1 207/7/1 208/5/1
f 209/26/1 210/27/1 211/28/1 212/29/1
f 213/26/1 214/27/1 215/28/1 216/29/1
f 217/26/1 218/27/1 219/28/1 220/29/1
f 221/26/1 222/27/1 223/28/1 224/29/1
f 225/13/1 226/30/1 227/10/1 228/9/1
f 229/30/1 230/31/1 231/11/1 232/10/1
f 233/30/1 234/31/1 235/11/1 236/10/1
f 237/30/1 238/31/1 239/11/1 240/10/1
f 241/30/1 242/31/1 243/11/1 244/10/1
f 245/31/1 246/32/1 247/17/1 248/11/1
f 249/13/1 250/30/1 251/10/1 252/9/1
f 253/30/1 254/31/1 255/11/1 256/10/1
f 257/30/1 258/31/1 259/11/1 260/10/1
f 261/30/1 262/31/1 263/11/1 264/10/1
f 265/30/1 266/31/1 267/11/1 268/10/1
f 269/31/1 270/32/1 271/17/1 272/11/1
f 273/33/1 274/26/1 275/29/1 276/34/1
f 277/26/1 278/27/1 279/28/1 280/29/1
f 281/27/1 282/35/1 283/36/1 284/28/1

