# Tiled2Unity generated file. Do not modify by hand.
# Wavefront file for 'con_hall_mesh_0001.obj'

# Vertices (Count = 464)
v -192 -288 0
v -224 -288 0
v -224 -256 0
v -192 -256 0
v -224 -288 0
v -256 -288 0
v -256 -256 0
v -224 -256 0
v -256 -288 0
v -288 -288 0
v -288 -256 0
v -256 -256 0
v -384 -288 0
v -416 -288 0
v -416 -256 0
v -384 -256 0
v -416 -288 0
v -448 -288 0
v -448 -256 0
v -416 -256 0
v -448 -288 0
v -480 -288 0
v -480 -256 0
v -448 -256 0
v -480 -288 0
v -512 -288 0
v -512 -256 0
v -480 -256 0
v -512 -288 0
v -544 -288 0
v -544 -256 0
v -512 -256 0
v -992 -288 0
v -1024 -288 0
v -1024 -256 0
v -992 -256 0
v -1024 -288 0
v -1056 -288 0
v -1056 -256 0
v -1024 -256 0
v -1056 -288 0
v -1088 -288 0
v -1088 -256 0
v -1056 -256 0
v -192 -320 0
v -224 -320 0
v -224 -288 0
v -192 -288 0
v -224 -320 0
v -256 -320 0
v -256 -288 0
v -224 -288 0
v -256 -320 0
v -288 -320 0
v -288 -288 0
v -256 -288 0
v -288 -320 0
v -320 -320 0
v -320 -288 0
v -288 -288 0
v -352 -320 0
v -384 -320 0
v -384 -288 0
v -352 -288 0
v -384 -320 0
v -416 -320 0
v -416 -288 0
v -384 -288 0
v -416 -320 0
v -448 -320 0
v -448 -288 0
v -416 -288 0
v -448 -320 0
v -480 -320 0
v -480 -288 0
v -448 -288 0
v -480 -320 0
v -512 -320 0
v -512 -288 0
v -480 -288 0
v -512 -320 0
v -544 -320 0
v -544 -288 0
v -512 -288 0
v -544 -320 0
v -576 -320 0
v -576 -288 0
v -544 -288 0
v -960 -320 0
v -992 -320 0
v -992 -288 0
v -960 -288 0
v -992 -320 0
v -1024 -320 0
v -1024 -288 0
v -992 -288 0
v -1024 -320 0
v -1056 -320 0
v -1056 -288 0
v -1024 -288 0
v -1056 -320 0
v -1088 -320 0
v -1088 -288 0
v -1056 -288 0
v -1088 -320 0
v -1120 -320 0
v -1120 -288 0
v -1088 -288 0
v -192 -352 0
v -224 -352 0
v -224 -320 0
v -192 -320 0
v -224 -352 0
v -256 -352 0
v -256 -320 0
v -224 -320 0
v -256 -352 0
v -288 -352 0
v -288 -320 0
v -256 -320 0
v -288 -352 0
v -320 -352 0
v -320 -320 0
v -288 -320 0
v -320 -352 0
v -352 -352 0
v -352 -320 0
v -320 -320 0
v -352 -352 0
v -384 -352 0
v -384 -320 0
v -352 -320 0
v -384 -352 0
v -416 -352 0
v -416 -320 0
v -384 -320 0
v -416 -352 0
v -448 -352 0
v -448 -320 0
v -416 -320 0
v -448 -352 0
v -480 -352 0
v -480 -320 0
v -448 -320 0
v -480 -352 0
v -512 -352 0
v -512 -320 0
v -480 -320 0
v -512 -352 0
v -544 -352 0
v -544 -320 0
v -512 -320 0
v -544 -352 0
v -576 -352 0
v -576 -320 0
v -544 -320 0
v -928 -352 0
v -960 -352 0
v -960 -320 0
v -928 -320 0
v -960 -352 0
v -992 -352 0
v -992 -320 0
v -960 -320 0
v -992 -352 0
v -1024 -352 0
v -1024 -320 0
v -992 -320 0
v -1024 -352 0
v -1056 -352 0
v -1056 -320 0
v -1024 -320 0
v -1056 -352 0
v -1088 -352 0
v -1088 -320 0
v -1056 -320 0
v -1088 -352 0
v -1120 -352 0
v -1120 -320 0
v -1088 -320 0
v -1120 -352 0
v -1152 -352 0
v -1152 -320 0
v -1120 -320 0
v -192 -384 0
v -224 -384 0
v -224 -352 0
v -192 -352 0
v -224 -384 0
v -256 -384 0
v -256 -352 0
v -224 -352 0
v -256 -384 0
v -288 -384 0
v -288 -352 0
v -256 -352 0
v -288 -384 0
v -320 -384 0
v -320 -352 0
v -288 -352 0
v -320 -384 0
v -352 -384 0
v -352 -352 0
v -320 -352 0
v -352 -384 0
v -384 -384 0
v -384 -352 0
v -352 -352 0
v -384 -384 0
v -416 -384 0
v -416 -352 0
v -384 -352 0
v -416 -384 0
v -448 -384 0
v -448 -352 0
v -416 -352 0
v -480 -384 0
v -512 -384 0
v -512 -352 0
v -480 -352 0
v -512 -384 0
v -544 -384 0
v -544 -352 0
v -512 -352 0
v -544 -384 0
v -576 -384 0
v -576 -352 0
v -544 -352 0
v -928 -384 0
v -960 -384 0
v -960 -352 0
v -928 -352 0
v -960 -384 0
v -992 -384 0
v -992 -352 0
v -960 -352 0
v -992 -384 0
v -1024 -384 0
v -1024 -352 0
v -992 -352 0
v -1024 -384 0
v -1056 -384 0
v -1056 -352 0
v -1024 -352 0
v -1056 -384 0
v -1088 -384 0
v -1088 -352 0
v -1056 -352 0
v -1088 -384 0
v -1120 -384 0
v -1120 -352 0
v -1088 -352 0
v -1120 -384 0
v -1152 -384 0
v -1152 -352 0
v -1120 -352 0
v -192 -416 0
v -224 -416 0
v -224 -384 0
v -192 -384 0
v -224 -416 0
v -256 -416 0
v -256 -384 0
v -224 -384 0
v -256 -416 0
v -288 -416 0
v -288 -384 0
v -256 -384 0
v -288 -416 0
v -320 -416 0
v -320 -384 0
v -288 -384 0
v -320 -416 0
v -352 -416 0
v -352 -384 0
v -320 -384 0
v -352 -416 0
v -384 -416 0
v -384 -384 0
v -352 -384 0
v -384 -416 0
v -416 -416 0
v -416 -384 0
v -384 -384 0
v -480 -416 0
v -512 -416 0
v -512 -384 0
v -480 -384 0
v -512 -416 0
v -544 -416 0
v -544 -384 0
v -512 -384 0
v -544 -416 0
v -576 -416 0
v -576 -384 0
v -544 -384 0
v -896 -416 0
v -928 -416 0
v -928 -384 0
v -896 -384 0
v -928 -416 0
v -960 -416 0
v -960 -384 0
v -928 -384 0
v -960 -416 0
v -992 -416 0
v -992 -384 0
v -960 -384 0
v -992 -416 0
v -1024 -416 0
v -1024 -384 0
v -992 -384 0
v -1024 -416 0
v -1056 -416 0
v -1056 -384 0
v -1024 -384 0
v -1056 -416 0
v -1088 -416 0
v -1088 -384 0
v -1056 -384 0
v -1088 -416 0
v -1120 -416 0
v -1120 -384 0
v -1088 -384 0
v -1120 -416 0
v -1152 -416 0
v -1152 -384 0
v -1120 -384 0
v -192 -448 0
v -224 -448 0
v -224 -416 0
v -192 -416 0
v -224 -448 0
v -256 -448 0
v -256 -416 0
v -224 -416 0
v -256 -448 0
v -288 -448 0
v -288 -416 0
v -256 -416 0
v -288 -448 0
v -320 -448 0
v -320 -416 0
v -288 -416 0
v -320 -448 0
v -352 -448 0
v -352 -416 0
v -320 -416 0
v -352 -448 0
v -384 -448 0
v -384 -416 0
v -352 -416 0
v -480 -448 0
v -512 -448 0
v -512 -416 0
v -480 -416 0
v -512 -448 0
v -544 -448 0
v -544 -416 0
v -512 -416 0
v -544 -448 0
v -576 -448 0
v -576 -416 0
v -544 -416 0
v -896 -448 0
v -928 -448 0
v -928 -416 0
v -896 -416 0
v -928 -448 0
v -960 -448 0
v -960 -416 0
v -928 -416 0
v -960 -448 0
v -992 -448 0
v -992 -416 0
v -960 -416 0
v -992 -448 0
v -1024 -448 0
v -1024 -416 0
v -992 -416 0
v -1024 -448 0
v -1056 -448 0
v -1056 -416 0
v -1024 -416 0
v -1056 -448 0
v -1088 -448 0
v -1088 -416 0
v -1056 -416 0
v -1088 -448 0
v -1120 -448 0
v -1120 -416 0
v -1088 -416 0
v -1120 -448 0
v -1152 -448 0
v -1152 -416 0
v -1120 -416 0
v -192 -480 0
v -224 -480 0
v -224 -448 0
v -192 -448 0
v -224 -480 0
v -256 -480 0
v -256 -448 0
v -224 -448 0
v -256 -480 0
v -288 -480 0
v -288 -448 0
v -256 -448 0
v -288 -480 0
v -320 -480 0
v -320 -448 0
v -288 -448 0
v -320 -480 0
v -352 -480 0
v -352 -448 0
v -320 -448 0
v -352 -480 0
v -384 -480 0
v -384 -448 0
v -352 -448 0
v -480 -480 0
v -512 -480 0
v -512 -448 0
v -480 -448 0
v -512 -480 0
v -544 -480 0
v -544 -448 0
v -512 -448 0
v -544 -480 0
v -576 -480 0
v -576 -448 0
v -544 -448 0
v -896 -480 0
v -928 -480 0
v -928 -448 0
v -896 -448 0
v -928 -480 0
v -960 -480 0
v -960 -448 0
v -928 -448 0
v -960 -480 0
v -992 -480 0
v -992 -448 0
v -960 -448 0
v -992 -480 0
v -1024 -480 0
v -1024 -448 0
v -992 -448 0
v -1024 -480 0
v -1056 -480 0
v -1056 -448 0
v -1024 -448 0
v -1056 -480 0
v -1088 -480 0
v -1088 -448 0
v -1056 -448 0
v -1088 -480 0
v -1120 -480 0
v -1120 -448 0
v -1088 -448 0
v -1120 -480 0
v -1152 -480 0
v -1152 -448 0
v -1120 -448 0

# Texture cooridinates (Count = 22)
vt 0.7 0.9
vt 0.8 0.9
vt 0.8 1
vt 0.7 1
vt 0.9 0.9
vt 0.9 1
vt 1 0.9
vt 1 1
vt 0.7 0.8
vt 0.8 0.8
vt 0.9 0.8
vt 0.7 0.5
vt 0.8 0.5
vt 0.8 0.6
vt 0.7 0.6
vt 0.9 0.5
vt 0.9 0.6
vt 0.8 0.7
vt 0.7 0.7
vt 0.9 0.7
vt 1 0.8
vt 1 0.7

# Normal
vn 0 0 -1

# Mesh description
g con_hall_mesh_0001

# Faces
f 1/1/1 2/2/1 3/3/1 4/4/1
f 5/2/1 6/5/1 7/6/1 8/3/1
f 9/5/1 10/7/1 11/8/1 12/6/1
f 13/1/1 14/2/1 15/3/1 16/4/1
f 17/2/1 18/5/1 19/6/1 20/3/1
f 21/2/1 22/5/1 23/6/1 24/3/1
f 25/2/1 26/5/1 27/6/1 28/3/1
f 29/5/1 30/7/1 31/8/1 32/6/1
f 33/1/1 34/2/1 35/3/1 36/4/1
f 37/2/1 38/5/1 39/6/1 40/3/1
f 41/5/1 42/7/1 43/8/1 44/6/1
f 45/9/1 46/10/1 47/2/1 48/1/1
f 49/10/1 50/11/1 51/5/1 52/2/1
f 53/12/1 54/13/1 55/14/1 56/15/1
f 57/5/1 58/7/1 59/8/1 60/6/1
f 61/1/1 62/2/1 63/3/1 64/4/1
f 65/13/1 66/16/1 67/17/1 68/14/1
f 69/10/1 70/11/1 71/5/1 72/2/1
f 73/10/1 74/11/1 75/5/1 76/2/1
f 77/10/1 78/11/1 79/5/1 80/2/1
f 81/12/1 82/13/1 83/14/1 84/15/1
f 85/5/1 86/7/1 87/8/1 88/6/1
f 89/1/1 90/2/1 91/3/1 92/4/1
f 93/13/1 94/16/1 95/17/1 96/14/1
f 97/10/1 98/11/1 99/5/1 100/2/1
f 101/12/1 102/13/1 103/14/1 104/15/1
f 105/5/1 106/7/1 107/8/1 108/6/1
f 109/9/1 110/10/1 111/2/1 112/1/1
f 113/10/1 114/11/1 115/5/1 116/2/1
f 117/10/1 118/11/1 119/5/1 120/2/1
f 121/12/1 122/13/1 123/14/1 124/15/1
f 125/2/1 126/5/1 127/6/1 128/3/1
f 129/13/1 130/16/1 131/17/1 132/14/1
f 133/10/1 134/11/1 135/5/1 136/2/1
f 137/15/1 138/14/1 139/18/1 140/19/1
f 141/18/1 142/20/1 143/11/1 144/10/1
f 145/14/1 146/17/1 147/20/1 148/18/1
f 149/10/1 150/11/1 151/5/1 152/2/1
f 153/11/1 154/21/1 155/7/1 156/5/1
f 157/1/1 158/2/1 159/3/1 160/4/1
f 161/13/1 162/16/1 163/17/1 164/14/1
f 165/10/1 166/11/1 167/5/1 168/2/1
f 169/10/1 170/11/1 171/5/1 172/2/1
f 173/10/1 174/11/1 175/5/1 176/2/1
f 177/12/1 178/13/1 179/14/1 180/15/1
f 181/5/1 182/7/1 183/8/1 184/6/1
f 185/9/1 186/10/1 187/2/1 188/1/1
f 189/10/1 190/11/1 191/5/1 192/2/1
f 193/10/1 194/11/1 195/5/1 196/2/1
f 197/10/1 198/11/1 199/5/1 200/2/1
f 201/10/1 202/11/1 203/5/1 204/2/1
f 205/10/1 206/11/1 207/5/1 208/2/1
f 209/15/1 210/14/1 211/18/1 212/19/1
f 213/20/1 214/22/1 215/21/1 216/11/1
f 217/9/1 218/10/1 219/2/1 220/1/1
f 221/10/1 222/11/1 223/5/1 224/2/1
f 225/11/1 226/21/1 227/7/1 228/5/1
f 229/9/1 230/10/1 231/2/1 232/1/1
f 233/10/1 234/11/1 235/5/1 236/2/1
f 237/10/1 238/11/1 239/5/1 240/2/1
f 241/10/1 242/11/1 243/5/1 244/2/1
f 245/10/1 246/11/1 247/5/1 248/2/1
f 249/10/1 250/11/1 251/5/1 252/2/1
f 253/11/1 254/21/1 255/7/1 256/5/1
f 257/9/1 258/10/1 259/2/1 260/1/1
f 261/10/1 262/11/1 263/5/1 264/2/1
f 265/15/1 266/14/1 267/18/1 268/19/1
f 269/14/1 270/17/1 271/20/1 272/18/1
f 273/10/1 274/11/1 275/5/1 276/2/1
f 277/15/1 278/14/1 279/18/1 280/19/1
f 281/20/1 282/22/1 283/21/1 284/11/1
f 285/9/1 286/10/1 287/2/1 288/1/1
f 289/10/1 290/11/1 291/5/1 292/2/1
f 293/11/1 294/21/1 295/7/1 296/5/1
f 297/1/1 298/2/1 299/3/1 300/4/1
f 301/13/1 302/16/1 303/17/1 304/14/1
f 305/10/1 306/11/1 307/5/1 308/2/1
f 309/10/1 310/11/1 311/5/1 312/2/1
f 313/10/1 314/11/1 315/5/1 316/2/1
f 317/10/1 318/11/1 319/5/1 320/2/1
f 321/10/1 322/11/1 323/5/1 324/2/1
f 325/11/1 326/21/1 327/7/1 328/5/1
f 329/9/1 330/10/1 331/2/1 332/1/1
f 333/10/1 334/11/1 335/5/1 336/2/1
f 337/11/1 338/21/1 339/7/1 340/5/1
f 341/9/1 342/10/1 343/2/1 344/1/1
f 345/10/1 346/11/1 347/5/1 348/2/1
f 349/11/1 350/21/1 351/7/1 352/5/1
f 353/9/1 354/10/1 355/2/1 356/1/1
f 357/10/1 358/11/1 359/5/1 360/2/1
f 361/11/1 362/21/1 363/7/1 364/5/1
f 365/9/1 366/10/1 367/2/1 368/1/1
f 369/10/1 370/11/1 371/5/1 372/2/1
f 373/10/1 374/11/1 375/5/1 376/2/1
f 377/10/1 378/11/1 379/5/1 380/2/1
f 381/10/1 382/11/1 383/5/1 384/2/1
f 385/10/1 386/11/1 387/5/1 388/2/1
f 389/10/1 390/11/1 391/5/1 392/2/1
f 393/11/1 394/21/1 395/7/1 396/5/1
f 397/19/1 398/18/1 399/10/1 400/9/1
f 401/18/1 402/20/1 403/11/1 404/10/1
f 405/20/1 406/22/1 407/21/1 408/11/1
f 409/19/1 410/18/1 411/10/1 412/9/1
f 413/18/1 414/20/1 415/11/1 416/10/1
f 417/20/1 418/22/1 419/21/1 420/11/1
f 421/19/1 422/18/1 423/10/1 424/9/1
f 425/18/1 426/20/1 427/11/1 428/10/1
f 429/20/1 430/22/1 431/21/1 432/11/1
f 433/19/1 434/18/1 435/10/1 436/9/1
f 437/18/1 438/20/1 439/11/1 440/10/1
f 441/18/1 442/20/1 443/11/1 444/10/1
f 445/18/1 446/20/1 447/11/1 448/10/1
f 449/18/1 450/20/1 451/11/1 452/10/1
f 453/18/1 454/20/1 455/11/1 456/10/1
f 457/18/1 458/20/1 459/11/1 460/10/1
f 461/20/1 462/22/1 463/21/1 464/11/1

