# Tiled2Unity generated file. Do not modify by hand.
# Wavefront file for 'SP_main_mesh_0002.obj'

# Vertices (Count = 72)
v -384 -608 0
v -416 -608 0
v -416 -576 0
v -384 -576 0
v -608 -608 0
v -640 -608 0
v -640 -576 0
v -608 -576 0
v -832 -608 0
v -864 -608 0
v -864 -576 0
v -832 -576 0
v -256 -640 0
v -288 -640 0
v -288 -608 0
v -256 -608 0
v -384 -640 0
v -416 -640 0
v -416 -608 0
v -384 -608 0
v -448 -640 0
v -480 -640 0
v -480 -608 0
v -448 -608 0
v -480 -640 0
v -512 -640 0
v -512 -608 0
v -480 -608 0
v -512 -640 0
v -544 -640 0
v -544 -608 0
v -512 -608 0
v -544 -640 0
v -576 -640 0
v -576 -608 0
v -544 -608 0
v -608 -640 0
v -640 -640 0
v -640 -608 0
v -608 -608 0
v -832 -640 0
v -864 -640 0
v -864 -608 0
v -832 -608 0
v -896 -640 0
v -928 -640 0
v -928 -608 0
v -896 -608 0
v -928 -640 0
v -960 -640 0
v -960 -608 0
v -928 -608 0
v -960 -640 0
v -992 -640 0
v -992 -608 0
v -960 -608 0
v -992 -640 0
v -1024 -640 0
v -1024 -608 0
v -992 -608 0
v -1216 -640 0
v -1248 -640 0
v -1248 -608 0
v -1216 -608 0
v -608 -672 0
v -640 -672 0
v -640 -640 0
v -608 -640 0
v -832 -672 0
v -864 -672 0
v -864 -640 0
v -832 -640 0

# Texture cooridinates (Count = 17)
vt 0 0.1
vt 0.1 0.1
vt 0.1 0.2
vt 0 0.2
vt 0.2 0.1
vt 0.2 0.2
vt 0.2 0
vt 0.3 0
vt 0.3 0.1
vt 0 0
vt 0.1 0
vt 0.3 0.3
vt 0.4 0.3
vt 0.4 0.4
vt 0.3 0.4
vt 0.5 0.3
vt 0.5 0.4

# Normal
vn 0 0 -1

# Mesh description
g SP_main_mesh_0002

# Faces
f 1/1/1 2/2/1 3/3/1 4/4/1
f 5/2/1 6/5/1 7/6/1 8/3/1
f 9/2/1 10/5/1 11/6/1 12/3/1
f 13/7/1 14/8/1 15/9/1 16/5/1
f 17/10/1 18/11/1 19/2/1 20/1/1
f 21/12/1 22/13/1 23/14/1 24/15/1
f 25/13/1 26/16/1 27/17/1 28/14/1
f 29/12/1 30/13/1 31/14/1 32/15/1
f 33/13/1 34/16/1 35/17/1 36/14/1
f 37/11/1 38/7/1 39/5/1 40/2/1
f 41/11/1 42/7/1 43/5/1 44/2/1
f 45/12/1 46/13/1 47/14/1 48/15/1
f 49/13/1 50/16/1 51/17/1 52/14/1
f 53/12/1 54/13/1 55/14/1 56/15/1
f 57/13/1 58/16/1 59/17/1 60/14/1
f 61/7/1 62/8/1 63/9/1 64/5/1
f 65/7/1 66/8/1 67/9/1 68/5/1
f 69/7/1 70/8/1 71/9/1 72/5/1

